<?xml version="1.0" encoding="UTF-8"?>
<svg width="17px" height="16px" viewBox="0 0 17 16" version="1.1" xmlns="http://www.w3.org/2000/svg" xmlns:xlink="http://www.w3.org/1999/xlink">
    <!-- Generator: Sketch 3.7.2 (28276) - http://www.bohemiancoding.com/sketch -->
    <title>Slice 1</title>
    <desc>Created with Sketch.</desc>
    <defs></defs>
    <g id="Page-1" stroke="none" stroke-width="1" fill="none" fill-rule="evenodd">
        <path d="M15,13 L15,12 C15,11.8 15,7.9 12.2,6.6 C10,5.6 10,3.1 10,3 L10,-4.4408921e-16 L8,-4.4408921e-16 L8,3 C8,3.1 8,5.6 5.8,6.6 C3,7.9 3,11.8 3,12 L3,13 L1,13 L4,16 L7,13 L5,13 L5,12 C5,12 5,9.2 6.7,8.4 C7.8,7.9 8.5,7.1 9,6.4 C9.5,7.2 10.2,7.9 11.3,8.4 C13,9.2 13,12 13,12 L13,13 L11,13 L14,16 L17,13 L15,13 L15,13 Z" id="Shape" fill="#7A7A7A" transform="translate(9.000000, 8.000000) rotate(-90.000000) translate(-9.000000, -8.000000) "></path>
    </g>
</svg>